<?xml version="1.0" encoding="UTF-8"?>
<!DOCTYPE svg PUBLIC "-//W3C//DTD SVG 1.1//EN" "http://www.w3.org/Graphics/SVG/1.1/DTD/svg11.dtd">
<svg width="160mm" height="90mm" viewBox="0 0 16000 9000" version="1.1" xmlns="http://www.w3.org/2000/svg" xmlns:xlink="http://www.w3.org/1999/xlink" stroke-width="28.222" stroke-linejoin="round" xml:space="preserve">
 <path fill="rgb(255,255,255)" stroke="none" d="M 8000,8999 L 0,8999 0,0 15999,0 15999,8999 8000,8999 Z"/>
 <path fill="none" stroke="rgb(179,179,179)" stroke-linejoin="round" d="M 8029,7056 L 2341,7056 2341,2350 13718,2350 13718,7056 8029,7056 Z"/>
 <path fill="none" stroke="rgb(179,179,179)" stroke-linejoin="round" d="M 13718,7055 L 2341,7055"/>
 <path fill="none" stroke="rgb(179,179,179)" stroke-linejoin="round" d="M 13718,6466 L 2341,6466"/>
 <path fill="none" stroke="rgb(179,179,179)" stroke-linejoin="round" d="M 13718,5878 L 2341,5878"/>
 <path fill="none" stroke="rgb(179,179,179)" stroke-linejoin="round" d="M 13718,5289 L 2341,5289"/>
 <path fill="none" stroke="rgb(179,179,179)" stroke-linejoin="round" d="M 13718,4701 L 2341,4701"/>
 <path fill="none" stroke="rgb(179,179,179)" stroke-linejoin="round" d="M 13718,4114 L 2341,4114"/>
 <path fill="none" stroke="rgb(179,179,179)" stroke-linejoin="round" d="M 13718,3525 L 2341,3525"/>
 <path fill="none" stroke="rgb(179,179,179)" stroke-linejoin="round" d="M 13718,2937 L 2341,2937"/>
 <path fill="none" stroke="rgb(179,179,179)" stroke-linejoin="round" d="M 13718,2349 L 2341,2349"/>
 <path fill="none" stroke="rgb(179,179,179)" stroke-linejoin="round" d="M 2341,7205 L 2341,7055"/>
 <path fill="none" stroke="rgb(179,179,179)" stroke-linejoin="round" d="M 2341,7205 L 2341,7055"/>
 <path fill="none" stroke="rgb(179,179,179)" stroke-linejoin="round" d="M 2605,7205 L 2605,7055"/>
 <path fill="none" stroke="rgb(179,179,179)" stroke-linejoin="round" d="M 2605,7205 L 2605,7055"/>
 <path fill="none" stroke="rgb(179,179,179)" stroke-linejoin="round" d="M 2870,7205 L 2870,7055"/>
 <path fill="none" stroke="rgb(179,179,179)" stroke-linejoin="round" d="M 2870,7205 L 2870,7055"/>
 <path fill="none" stroke="rgb(179,179,179)" stroke-linejoin="round" d="M 3134,7205 L 3134,7055"/>
 <path fill="none" stroke="rgb(179,179,179)" stroke-linejoin="round" d="M 3134,7205 L 3134,7055"/>
 <path fill="none" stroke="rgb(179,179,179)" stroke-linejoin="round" d="M 3399,7205 L 3399,7055"/>
 <path fill="none" stroke="rgb(179,179,179)" stroke-linejoin="round" d="M 3399,7205 L 3399,7055"/>
 <path fill="none" stroke="rgb(179,179,179)" stroke-linejoin="round" d="M 3664,7205 L 3664,7055"/>
 <path fill="none" stroke="rgb(179,179,179)" stroke-linejoin="round" d="M 3664,7205 L 3664,7055"/>
 <path fill="none" stroke="rgb(179,179,179)" stroke-linejoin="round" d="M 3928,7205 L 3928,7055"/>
 <path fill="none" stroke="rgb(179,179,179)" stroke-linejoin="round" d="M 3928,7205 L 3928,7055"/>
 <path fill="none" stroke="rgb(179,179,179)" stroke-linejoin="round" d="M 4193,7205 L 4193,7055"/>
 <path fill="none" stroke="rgb(179,179,179)" stroke-linejoin="round" d="M 4193,7205 L 4193,7055"/>
 <path fill="none" stroke="rgb(179,179,179)" stroke-linejoin="round" d="M 4457,7205 L 4457,7055"/>
 <path fill="none" stroke="rgb(179,179,179)" stroke-linejoin="round" d="M 4457,7205 L 4457,7055"/>
 <path fill="none" stroke="rgb(179,179,179)" stroke-linejoin="round" d="M 4722,7205 L 4722,7055"/>
 <path fill="none" stroke="rgb(179,179,179)" stroke-linejoin="round" d="M 4722,7205 L 4722,7055"/>
 <path fill="none" stroke="rgb(179,179,179)" stroke-linejoin="round" d="M 4987,7205 L 4987,7055"/>
 <path fill="none" stroke="rgb(179,179,179)" stroke-linejoin="round" d="M 4987,7205 L 4987,7055"/>
 <path fill="none" stroke="rgb(179,179,179)" stroke-linejoin="round" d="M 5251,7205 L 5251,7055"/>
 <path fill="none" stroke="rgb(179,179,179)" stroke-linejoin="round" d="M 5251,7205 L 5251,7055"/>
 <path fill="none" stroke="rgb(179,179,179)" stroke-linejoin="round" d="M 5516,7205 L 5516,7055"/>
 <path fill="none" stroke="rgb(179,179,179)" stroke-linejoin="round" d="M 5516,7205 L 5516,7055"/>
 <path fill="none" stroke="rgb(179,179,179)" stroke-linejoin="round" d="M 5780,7205 L 5780,7055"/>
 <path fill="none" stroke="rgb(179,179,179)" stroke-linejoin="round" d="M 5780,7205 L 5780,7055"/>
 <path fill="none" stroke="rgb(179,179,179)" stroke-linejoin="round" d="M 6045,7205 L 6045,7055"/>
 <path fill="none" stroke="rgb(179,179,179)" stroke-linejoin="round" d="M 6045,7205 L 6045,7055"/>
 <path fill="none" stroke="rgb(179,179,179)" stroke-linejoin="round" d="M 6310,7205 L 6310,7055"/>
 <path fill="none" stroke="rgb(179,179,179)" stroke-linejoin="round" d="M 6310,7205 L 6310,7055"/>
 <path fill="none" stroke="rgb(179,179,179)" stroke-linejoin="round" d="M 6574,7205 L 6574,7055"/>
 <path fill="none" stroke="rgb(179,179,179)" stroke-linejoin="round" d="M 6574,7205 L 6574,7055"/>
 <path fill="none" stroke="rgb(179,179,179)" stroke-linejoin="round" d="M 6839,7205 L 6839,7055"/>
 <path fill="none" stroke="rgb(179,179,179)" stroke-linejoin="round" d="M 6839,7205 L 6839,7055"/>
 <path fill="none" stroke="rgb(179,179,179)" stroke-linejoin="round" d="M 7103,7205 L 7103,7055"/>
 <path fill="none" stroke="rgb(179,179,179)" stroke-linejoin="round" d="M 7103,7205 L 7103,7055"/>
 <path fill="none" stroke="rgb(179,179,179)" stroke-linejoin="round" d="M 7368,7205 L 7368,7055"/>
 <path fill="none" stroke="rgb(179,179,179)" stroke-linejoin="round" d="M 7368,7205 L 7368,7055"/>
 <path fill="none" stroke="rgb(179,179,179)" stroke-linejoin="round" d="M 7633,7205 L 7633,7055"/>
 <path fill="none" stroke="rgb(179,179,179)" stroke-linejoin="round" d="M 7633,7205 L 7633,7055"/>
 <path fill="none" stroke="rgb(179,179,179)" stroke-linejoin="round" d="M 7897,7205 L 7897,7055"/>
 <path fill="none" stroke="rgb(179,179,179)" stroke-linejoin="round" d="M 7897,7205 L 7897,7055"/>
 <path fill="none" stroke="rgb(179,179,179)" stroke-linejoin="round" d="M 8161,7205 L 8161,7055"/>
 <path fill="none" stroke="rgb(179,179,179)" stroke-linejoin="round" d="M 8161,7205 L 8161,7055"/>
 <path fill="none" stroke="rgb(179,179,179)" stroke-linejoin="round" d="M 8425,7205 L 8425,7055"/>
 <path fill="none" stroke="rgb(179,179,179)" stroke-linejoin="round" d="M 8425,7205 L 8425,7055"/>
 <path fill="none" stroke="rgb(179,179,179)" stroke-linejoin="round" d="M 8690,7205 L 8690,7055"/>
 <path fill="none" stroke="rgb(179,179,179)" stroke-linejoin="round" d="M 8690,7205 L 8690,7055"/>
 <path fill="none" stroke="rgb(179,179,179)" stroke-linejoin="round" d="M 8955,7205 L 8955,7055"/>
 <path fill="none" stroke="rgb(179,179,179)" stroke-linejoin="round" d="M 8955,7205 L 8955,7055"/>
 <path fill="none" stroke="rgb(179,179,179)" stroke-linejoin="round" d="M 9219,7205 L 9219,7055"/>
 <path fill="none" stroke="rgb(179,179,179)" stroke-linejoin="round" d="M 9219,7205 L 9219,7055"/>
 <path fill="none" stroke="rgb(179,179,179)" stroke-linejoin="round" d="M 9484,7205 L 9484,7055"/>
 <path fill="none" stroke="rgb(179,179,179)" stroke-linejoin="round" d="M 9484,7205 L 9484,7055"/>
 <path fill="none" stroke="rgb(179,179,179)" stroke-linejoin="round" d="M 9748,7205 L 9748,7055"/>
 <path fill="none" stroke="rgb(179,179,179)" stroke-linejoin="round" d="M 9748,7205 L 9748,7055"/>
 <path fill="none" stroke="rgb(179,179,179)" stroke-linejoin="round" d="M 10013,7205 L 10013,7055"/>
 <path fill="none" stroke="rgb(179,179,179)" stroke-linejoin="round" d="M 10013,7205 L 10013,7055"/>
 <path fill="none" stroke="rgb(179,179,179)" stroke-linejoin="round" d="M 10278,7205 L 10278,7055"/>
 <path fill="none" stroke="rgb(179,179,179)" stroke-linejoin="round" d="M 10278,7205 L 10278,7055"/>
 <path fill="none" stroke="rgb(179,179,179)" stroke-linejoin="round" d="M 10542,7205 L 10542,7055"/>
 <path fill="none" stroke="rgb(179,179,179)" stroke-linejoin="round" d="M 10542,7205 L 10542,7055"/>
 <path fill="none" stroke="rgb(179,179,179)" stroke-linejoin="round" d="M 10807,7205 L 10807,7055"/>
 <path fill="none" stroke="rgb(179,179,179)" stroke-linejoin="round" d="M 10807,7205 L 10807,7055"/>
 <path fill="none" stroke="rgb(179,179,179)" stroke-linejoin="round" d="M 11071,7205 L 11071,7055"/>
 <path fill="none" stroke="rgb(179,179,179)" stroke-linejoin="round" d="M 11071,7205 L 11071,7055"/>
 <path fill="none" stroke="rgb(179,179,179)" stroke-linejoin="round" d="M 11336,7205 L 11336,7055"/>
 <path fill="none" stroke="rgb(179,179,179)" stroke-linejoin="round" d="M 11336,7205 L 11336,7055"/>
 <path fill="none" stroke="rgb(179,179,179)" stroke-linejoin="round" d="M 11601,7205 L 11601,7055"/>
 <path fill="none" stroke="rgb(179,179,179)" stroke-linejoin="round" d="M 11601,7205 L 11601,7055"/>
 <path fill="none" stroke="rgb(179,179,179)" stroke-linejoin="round" d="M 11865,7205 L 11865,7055"/>
 <path fill="none" stroke="rgb(179,179,179)" stroke-linejoin="round" d="M 11865,7205 L 11865,7055"/>
 <path fill="none" stroke="rgb(179,179,179)" stroke-linejoin="round" d="M 12130,7205 L 12130,7055"/>
 <path fill="none" stroke="rgb(179,179,179)" stroke-linejoin="round" d="M 12130,7205 L 12130,7055"/>
 <path fill="none" stroke="rgb(179,179,179)" stroke-linejoin="round" d="M 12394,7205 L 12394,7055"/>
 <path fill="none" stroke="rgb(179,179,179)" stroke-linejoin="round" d="M 12394,7205 L 12394,7055"/>
 <path fill="none" stroke="rgb(179,179,179)" stroke-linejoin="round" d="M 12659,7205 L 12659,7055"/>
 <path fill="none" stroke="rgb(179,179,179)" stroke-linejoin="round" d="M 12659,7205 L 12659,7055"/>
 <path fill="none" stroke="rgb(179,179,179)" stroke-linejoin="round" d="M 12924,7205 L 12924,7055"/>
 <path fill="none" stroke="rgb(179,179,179)" stroke-linejoin="round" d="M 12924,7205 L 12924,7055"/>
 <path fill="none" stroke="rgb(179,179,179)" stroke-linejoin="round" d="M 13188,7205 L 13188,7055"/>
 <path fill="none" stroke="rgb(179,179,179)" stroke-linejoin="round" d="M 13188,7205 L 13188,7055"/>
 <path fill="none" stroke="rgb(179,179,179)" stroke-linejoin="round" d="M 13453,7205 L 13453,7055"/>
 <path fill="none" stroke="rgb(179,179,179)" stroke-linejoin="round" d="M 13453,7205 L 13453,7055"/>
 <path fill="none" stroke="rgb(179,179,179)" stroke-linejoin="round" d="M 13718,7205 L 13718,7055"/>
 <path fill="none" stroke="rgb(179,179,179)" stroke-linejoin="round" d="M 13718,7205 L 13718,7055"/>
 <path fill="none" stroke="rgb(179,179,179)" stroke-linejoin="round" d="M 2341,7055 L 13718,7055"/>
 <path fill="none" stroke="rgb(179,179,179)" stroke-linejoin="round" d="M 2191,7055 L 2341,7055"/>
 <path fill="none" stroke="rgb(179,179,179)" stroke-linejoin="round" d="M 2191,7055 L 2341,7055"/>
 <path fill="none" stroke="rgb(179,179,179)" stroke-linejoin="round" d="M 2191,6466 L 2341,6466"/>
 <path fill="none" stroke="rgb(179,179,179)" stroke-linejoin="round" d="M 2191,6466 L 2341,6466"/>
 <path fill="none" stroke="rgb(179,179,179)" stroke-linejoin="round" d="M 2191,5878 L 2341,5878"/>
 <path fill="none" stroke="rgb(179,179,179)" stroke-linejoin="round" d="M 2191,5878 L 2341,5878"/>
 <path fill="none" stroke="rgb(179,179,179)" stroke-linejoin="round" d="M 2191,5289 L 2341,5289"/>
 <path fill="none" stroke="rgb(179,179,179)" stroke-linejoin="round" d="M 2191,5289 L 2341,5289"/>
 <path fill="none" stroke="rgb(179,179,179)" stroke-linejoin="round" d="M 2191,4701 L 2341,4701"/>
 <path fill="none" stroke="rgb(179,179,179)" stroke-linejoin="round" d="M 2191,4701 L 2341,4701"/>
 <path fill="none" stroke="rgb(179,179,179)" stroke-linejoin="round" d="M 2191,4114 L 2341,4114"/>
 <path fill="none" stroke="rgb(179,179,179)" stroke-linejoin="round" d="M 2191,4114 L 2341,4114"/>
 <path fill="none" stroke="rgb(179,179,179)" stroke-linejoin="round" d="M 2191,3525 L 2341,3525"/>
 <path fill="none" stroke="rgb(179,179,179)" stroke-linejoin="round" d="M 2191,3525 L 2341,3525"/>
 <path fill="none" stroke="rgb(179,179,179)" stroke-linejoin="round" d="M 2191,2937 L 2341,2937"/>
 <path fill="none" stroke="rgb(179,179,179)" stroke-linejoin="round" d="M 2191,2937 L 2341,2937"/>
 <path fill="none" stroke="rgb(179,179,179)" stroke-linejoin="round" d="M 2191,2349 L 2341,2349"/>
 <path fill="none" stroke="rgb(179,179,179)" stroke-linejoin="round" d="M 2191,2349 L 2341,2349"/>
 <path fill="none" stroke="rgb(179,179,179)" stroke-linejoin="round" d="M 2341,7055 L 2341,2349"/>
 <path fill="none" stroke="rgb(255,56,56)" stroke-width="80" stroke-linejoin="round" d="M 2341,3121 L 2605,3437 2870,3706 3134,3938 3399,4130 3664,4305 3928,4457 4193,4582 4457,4692 4722,4788 4987,4860 5251,4927 5516,4994 5780,5050 6045,5097 6310,5136 6574,5175 6839,5201 7103,5219 7368,5243 7633,5263 7897,5271 8161,5287 8425,5306 8690,5321 8955,5335 9219,5341 9484,5348 9748,5360 10013,5371 10278,5374 10542,5384 10807,5388 11071,5389 11336,5394 11601,5391 11865,5390 12130,5392 12394,5396 12659,5389 12924,5386 13188,5386 13453,5379 13718,5378"/>
 <text class="TextShape" transform="rotate(-44.9 2289 7668)"><tspan class="TextParagraph" font-family="Liberation Sans, sans-serif" font-size="353px" font-weight="400"><tspan class="TextPosition" x="2289" y="7668"><tspan fill="rgb(0,0,0)" stroke="none">1</tspan></tspan></tspan></text>
 <text class="TextShape" transform="rotate(-44.9 3082 7668)"><tspan class="TextParagraph" font-family="Liberation Sans, sans-serif" font-size="353px" font-weight="400"><tspan class="TextPosition" x="3082" y="7668"><tspan fill="rgb(0,0,0)" stroke="none">4</tspan></tspan></tspan></text>
 <text class="TextShape" transform="rotate(-44.9 3876 7668)"><tspan class="TextParagraph" font-family="Liberation Sans, sans-serif" font-size="353px" font-weight="400"><tspan class="TextPosition" x="3876" y="7668"><tspan fill="rgb(0,0,0)" stroke="none">7</tspan></tspan></tspan></text>
 <text class="TextShape" transform="rotate(-44.9 4534 7804)"><tspan class="TextParagraph" font-family="Liberation Sans, sans-serif" font-size="353px" font-weight="400"><tspan class="TextPosition" x="4534" y="7804"><tspan fill="rgb(0,0,0)" stroke="none">10</tspan></tspan></tspan></text>
 <text class="TextShape" transform="rotate(-44.9 5328 7804)"><tspan class="TextParagraph" font-family="Liberation Sans, sans-serif" font-size="353px" font-weight="400"><tspan class="TextPosition" x="5328" y="7804"><tspan fill="rgb(0,0,0)" stroke="none">13</tspan></tspan></tspan></text>
 <text class="TextShape" transform="rotate(-44.9 6122 7804)"><tspan class="TextParagraph" font-family="Liberation Sans, sans-serif" font-size="353px" font-weight="400"><tspan class="TextPosition" x="6122" y="7804"><tspan fill="rgb(0,0,0)" stroke="none">16</tspan></tspan></tspan></text>
 <text class="TextShape" transform="rotate(-44.9 6915 7804)"><tspan class="TextParagraph" font-family="Liberation Sans, sans-serif" font-size="353px" font-weight="400"><tspan class="TextPosition" x="6915" y="7804"><tspan fill="rgb(0,0,0)" stroke="none">19</tspan></tspan></tspan></text>
 <text class="TextShape" transform="rotate(-44.9 7709 7804)"><tspan class="TextParagraph" font-family="Liberation Sans, sans-serif" font-size="353px" font-weight="400"><tspan class="TextPosition" x="7709" y="7804"><tspan fill="rgb(0,0,0)" stroke="none">22</tspan></tspan></tspan></text>
 <text class="TextShape" transform="rotate(-44.9 8503 7804)"><tspan class="TextParagraph" font-family="Liberation Sans, sans-serif" font-size="353px" font-weight="400"><tspan class="TextPosition" x="8503" y="7804"><tspan fill="rgb(0,0,0)" stroke="none">25</tspan></tspan></tspan></text>
 <text class="TextShape" transform="rotate(-44.9 9297 7804)"><tspan class="TextParagraph" font-family="Liberation Sans, sans-serif" font-size="353px" font-weight="400"><tspan class="TextPosition" x="9297" y="7804"><tspan fill="rgb(0,0,0)" stroke="none">28</tspan></tspan></tspan></text>
 <text class="TextShape" transform="rotate(-44.9 10091 7804)"><tspan class="TextParagraph" font-family="Liberation Sans, sans-serif" font-size="353px" font-weight="400"><tspan class="TextPosition" x="10091" y="7804"><tspan fill="rgb(0,0,0)" stroke="none">31</tspan></tspan></tspan></text>
 <text class="TextShape" transform="rotate(-44.9 10884 7804)"><tspan class="TextParagraph" font-family="Liberation Sans, sans-serif" font-size="353px" font-weight="400"><tspan class="TextPosition" x="10884" y="7804"><tspan fill="rgb(0,0,0)" stroke="none">34</tspan></tspan></tspan></text>
 <text class="TextShape" transform="rotate(-44.9 11677 7804)"><tspan class="TextParagraph" font-family="Liberation Sans, sans-serif" font-size="353px" font-weight="400"><tspan class="TextPosition" x="11677" y="7804"><tspan fill="rgb(0,0,0)" stroke="none">37</tspan></tspan></tspan></text>
 <text class="TextShape" transform="rotate(-44.9 12471 7804)"><tspan class="TextParagraph" font-family="Liberation Sans, sans-serif" font-size="353px" font-weight="400"><tspan class="TextPosition" x="12471" y="7804"><tspan fill="rgb(0,0,0)" stroke="none">40</tspan></tspan></tspan></text>
 <text class="TextShape" transform="rotate(-44.9 13265 7804)"><tspan class="TextParagraph" font-family="Liberation Sans, sans-serif" font-size="353px" font-weight="400"><tspan class="TextPosition" x="13265" y="7804"><tspan fill="rgb(0,0,0)" stroke="none">43</tspan></tspan></tspan></text>
 <text class="TextShape"><tspan class="TextParagraph" font-family="Liberation Sans, sans-serif" font-size="353px" font-weight="400"><tspan class="TextPosition" x="1315" y="7180"><tspan fill="rgb(0,0,0)" stroke="none">2560</tspan></tspan></tspan></text>
 <text class="TextShape"><tspan class="TextParagraph" font-family="Liberation Sans, sans-serif" font-size="353px" font-weight="400"><tspan class="TextPosition" x="1315" y="6591"><tspan fill="rgb(0,0,0)" stroke="none">2570</tspan></tspan></tspan></text>
 <text class="TextShape"><tspan class="TextParagraph" font-family="Liberation Sans, sans-serif" font-size="353px" font-weight="400"><tspan class="TextPosition" x="1315" y="6003"><tspan fill="rgb(0,0,0)" stroke="none">2580</tspan></tspan></tspan></text>
 <text class="TextShape"><tspan class="TextParagraph" font-family="Liberation Sans, sans-serif" font-size="353px" font-weight="400"><tspan class="TextPosition" x="1315" y="5414"><tspan fill="rgb(0,0,0)" stroke="none">2590</tspan></tspan></tspan></text>
 <text class="TextShape"><tspan class="TextParagraph" font-family="Liberation Sans, sans-serif" font-size="353px" font-weight="400"><tspan class="TextPosition" x="1315" y="4826"><tspan fill="rgb(0,0,0)" stroke="none">2600</tspan></tspan></tspan></text>
 <text class="TextShape"><tspan class="TextParagraph" font-family="Liberation Sans, sans-serif" font-size="353px" font-weight="400"><tspan class="TextPosition" x="1315" y="4238"><tspan fill="rgb(0,0,0)" stroke="none">2610</tspan></tspan></tspan></text>
 <text class="TextShape"><tspan class="TextParagraph" font-family="Liberation Sans, sans-serif" font-size="353px" font-weight="400"><tspan class="TextPosition" x="1315" y="3649"><tspan fill="rgb(0,0,0)" stroke="none">2620</tspan></tspan></tspan></text>
 <text class="TextShape"><tspan class="TextParagraph" font-family="Liberation Sans, sans-serif" font-size="353px" font-weight="400"><tspan class="TextPosition" x="1315" y="3061"><tspan fill="rgb(0,0,0)" stroke="none">2630</tspan></tspan></tspan></text>
 <text class="TextShape"><tspan class="TextParagraph" font-family="Liberation Sans, sans-serif" font-size="353px" font-weight="400"><tspan class="TextPosition" x="1315" y="2473"><tspan fill="rgb(0,0,0)" stroke="none">2640</tspan></tspan></tspan></text>
 <text class="TextShape"><tspan class="TextParagraph" font-family="Liberation Sans, sans-serif" font-size="459px" font-weight="400"><tspan class="TextPosition" x="6642" y="877"><tspan fill="rgb(0,0,0)" stroke="none">Training Loss</tspan></tspan></tspan></text>
 <text class="TextShape"><tspan class="TextParagraph" font-family="Liberation Sans, sans-serif" font-size="388px" font-weight="400"><tspan class="TextPosition" x="6377" y="1771"><tspan fill="rgb(0,0,0)" stroke="none">Rubix ML K Means</tspan></tspan></tspan></text>
 <path fill="none" stroke="rgb(255,56,56)" stroke-width="80" stroke-linejoin="round" d="M 14154,4499 L 14954,4499"/>
 <text class="TextShape"><tspan class="TextParagraph" font-family="Liberation Sans, sans-serif" font-size="353px" font-weight="400"><tspan class="TextPosition" x="15054" y="4622"><tspan fill="rgb(0,0,0)" stroke="none">loss</tspan></tspan></tspan></text>
 <text class="TextShape"><tspan class="TextParagraph" font-family="Liberation Sans, sans-serif" font-size="318px" font-weight="400"><tspan class="TextPosition" x="7066" y="8414"><tspan fill="rgb(0,0,0)" stroke="none">Epoch</tspan></tspan></tspan></text>
 <text class="TextShape" transform="rotate(-90 828 5445)"><tspan class="TextParagraph" font-family="Liberation Sans, sans-serif" font-size="318px" font-weight="400"><tspan class="TextPosition" x="828" y="5445"><tspan fill="rgb(0,0,0)" stroke="none">Inertia</tspan></tspan></tspan></text>
</svg>